<svg width="48" height="52" viewBox="0 0 48 52" fill="none" xmlns="http://www.w3.org/2000/svg">
<path d="M33.7778 6.44934C39.0944 6.47867 41.974 6.71579 43.8513 8.59312C46 10.7418 46 14.1982 46 21.1111V35.7778C46 42.6931 46 46.1496 43.8513 48.2982C41.7051 50.4444 38.2462 50.4445 31.3333 50.4445H16.6667C9.75378 50.4445 6.29489 50.4444 4.14867 48.2982C2 46.1471 2 42.6931 2 35.7778V21.1111C2 14.1982 2 10.7418 4.14867 8.59312C6.026 6.71579 8.90556 6.47867 14.2222 6.44934" stroke="#FB6A68" stroke-width="2.5"/>
<path d="M20.329 30.8889H36.2179M11.7734 30.8889H12.9957M11.7734 22.3333H12.9957M11.7734 39.4444H12.9957M20.329 22.3333H36.2179M20.329 39.4444H36.2179" stroke="#FB6A68" stroke-width="2.5" stroke-linecap="round"/>
<path d="M14.2266 5.22221C14.2266 4.24975 14.6129 3.31712 15.3005 2.62948C15.9881 1.94185 16.9208 1.55554 17.8932 1.55554H30.1155C31.0879 1.55554 32.0205 1.94185 32.7082 2.62948C33.3958 3.31712 33.7821 4.24975 33.7821 5.22221V7.66665C33.7821 8.63911 33.3958 9.57174 32.7082 10.2594C32.0205 10.947 31.0879 11.3333 30.1155 11.3333H17.8932C16.9208 11.3333 15.9881 10.947 15.3005 10.2594C14.6129 9.57174 14.2266 8.63911 14.2266 7.66665V5.22221Z" stroke="#FB6A68" stroke-width="2.5"/>
</svg>
