<svg width="39" height="60" viewBox="0 0 39 60" fill="none" xmlns="http://www.w3.org/2000/svg">
<path d="M33.7445 2.29027L5.46367 2.36482L5.43045 23.0156M33.7445 2.29027L33.7252 15.4227M33.7445 2.29027L36.5746 2.28635M5.4662 2.36336L2.63159 2.33619M33.7252 15.4227L33.712 25.3924L33.6933 34.9208M33.7252 15.4227L25.1187 15.4375M33.6933 34.9208L33.681 43.6204C33.6698 47.3709 32.1732 50.9642 29.5188 53.6139C26.8645 56.2636 23.2686 57.7539 19.5181 57.7586C17.6646 57.7638 15.8284 57.403 14.1148 56.6968C12.4011 55.9907 10.8438 54.9532 9.53203 53.6438C8.22031 52.3343 7.18005 50.7788 6.47093 49.0664C5.76181 47.354 5.39779 45.5184 5.39975 43.6649L5.40802 36.0959M33.6933 34.9208L24.9012 34.935M33.7095 25.3939L19.5669 25.4156" stroke="#FB6A68" stroke-width="4.375" stroke-linecap="round"/>
</svg>
