<svg width="50" height="50" viewBox="0 0 50 50" fill="none" xmlns="http://www.w3.org/2000/svg">
<path d="M4.3 25C14.65 25 25 14.65 25 4.3C25 14.65 35.35 25 45.7 25C35.35 25 25 35.35 25 45.7C25 35.35 14.65 25 4.3 25ZM2 42.25C3.9159 42.25 7.75 38.4159 7.75 36.5C7.75 38.4159 11.5841 42.25 13.5 42.25C11.5841 42.25 7.75 46.0841 7.75 48C7.75 46.0841 3.9159 42.25 2 42.25ZM34.2 8.9C36.5 8.9 41.1 4.3 41.1 2C41.1 4.3 45.7 8.9 48 8.9C45.7 8.9 41.1 13.5 41.1 15.8C41.1 13.5 36.5 8.9 34.2 8.9Z" stroke="#FB6A68" stroke-width="3" stroke-linecap="round" stroke-linejoin="round"/>
</svg>
