<svg width="63" height="52" viewBox="0 0 63 52" fill="none" xmlns="http://www.w3.org/2000/svg">
<path d="M60.8125 48.4219H58.0781V26C58.0781 24.9847 57.6748 24.011 56.9569 23.2931C56.239 22.5752 55.2653 22.1719 54.25 22.1719H38.3906V4.125C38.3906 3.10972 37.9873 2.13602 37.2694 1.41811C36.5515 0.700194 35.5778 0.296875 34.5625 0.296875H8.3125C7.29722 0.296875 6.32352 0.700194 5.60561 1.41811C4.88769 2.13602 4.48438 3.10972 4.48438 4.125V48.4219H1.75C1.31488 48.4219 0.89758 48.5947 0.589903 48.9024C0.282226 49.2101 0.109375 49.6274 0.109375 50.0625C0.109375 50.4976 0.282226 50.9149 0.589903 51.2226C0.89758 51.5303 1.31488 51.7031 1.75 51.7031H60.8125C61.2476 51.7031 61.6649 51.5303 61.9726 51.2226C62.2803 50.9149 62.4531 50.4976 62.4531 50.0625C62.4531 49.6274 62.2803 49.2101 61.9726 48.9024C61.6649 48.5947 61.2476 48.4219 60.8125 48.4219ZM54.25 25.4531C54.395 25.4531 54.5341 25.5107 54.6367 25.6133C54.7393 25.7159 54.7969 25.855 54.7969 26V48.4219H38.3906V25.4531H54.25ZM7.76562 4.125C7.76562 3.97996 7.82324 3.84086 7.9258 3.7383C8.02836 3.63574 8.16746 3.57812 8.3125 3.57812H34.5625C34.7075 3.57812 34.8466 3.63574 34.9492 3.7383C35.0518 3.84086 35.1094 3.97996 35.1094 4.125V48.4219H29.6406V34.75C29.6406 34.3149 29.4678 33.8976 29.1601 33.5899C28.8524 33.2822 28.4351 33.1094 28 33.1094H14.875C14.4399 33.1094 14.0226 33.2822 13.7149 33.5899C13.4072 33.8976 13.2344 34.3149 13.2344 34.75V48.4219H7.76562V4.125ZM26.3594 48.4219H16.5156V36.3906H26.3594V48.4219ZM13.2344 17.25C13.2344 16.8149 13.4072 16.3976 13.7149 16.0899C14.0226 15.7822 14.4399 15.6094 14.875 15.6094H19.7969V10.6875C19.7969 10.2524 19.9697 9.83508 20.2774 9.5274C20.5851 9.21973 21.0024 9.04688 21.4375 9.04688C21.8726 9.04688 22.2899 9.21973 22.5976 9.5274C22.9053 9.83508 23.0781 10.2524 23.0781 10.6875V15.6094H28C28.4351 15.6094 28.8524 15.7822 29.1601 16.0899C29.4678 16.3976 29.6406 16.8149 29.6406 17.25C29.6406 17.6851 29.4678 18.1024 29.1601 18.4101C28.8524 18.7178 28.4351 18.8906 28 18.8906H23.0781V23.8125C23.0781 24.2476 22.9053 24.6649 22.5976 24.9726C22.2899 25.2803 21.8726 25.4531 21.4375 25.4531C21.0024 25.4531 20.5851 25.2803 20.2774 24.9726C19.9697 24.6649 19.7969 24.2476 19.7969 23.8125V18.8906H14.875C14.4399 18.8906 14.0226 18.7178 13.7149 18.4101C13.4072 18.1024 13.2344 17.6851 13.2344 17.25Z" fill="#FB6A68"/>
</svg>
