<svg width="58" height="38" viewBox="0 0 58 38" fill="none" xmlns="http://www.w3.org/2000/svg">
<path d="M57.3166 2.85412C57.1044 2.72294 56.862 2.64741 56.6121 2.63463C56.3623 2.62185 56.1133 2.67224 55.8885 2.78106C45.1567 7.97306 37.5294 5.55483 29.4547 2.99536C21.1785 0.37257 12.6221 -2.33789 0.82836 3.37039C0.580059 3.49036 0.37076 3.67701 0.224306 3.90908C0.0778523 4.14115 0.000132384 4.40931 0 4.68301V33.9063C0.000119821 34.1541 0.0638377 34.3978 0.185163 34.6144C0.306489 34.8311 0.481437 35.0137 0.69356 35.1449C0.905684 35.2762 1.14801 35.3518 1.39777 35.3648C1.64752 35.3777 1.8965 35.3275 2.12129 35.2189C12.8531 30.0269 20.4804 32.4451 28.5551 35.0046C33.2254 36.4877 38.0087 38 43.4066 38C47.5484 38 52.0614 37.1087 57.1716 34.6296C57.4199 34.5096 57.6292 34.323 57.7757 34.0909C57.9221 33.8588 57.9999 33.5907 58 33.317V4.09367C58.0011 3.84668 57.939 3.60343 57.8195 3.38666C57.7 3.16989 57.527 2.98667 57.3166 2.85412ZM55.0602 32.3891C44.761 37.0673 37.3205 34.7099 29.4547 32.2162C24.7722 30.7283 20.0011 29.2233 14.6032 29.2233C11.0415 29.2233 7.20944 29.8808 2.94965 31.6391V5.60111C13.2489 0.922943 20.6893 3.28029 28.5551 5.77401C36.325 8.24094 44.3456 10.7834 55.0602 6.35848V32.3891ZM29.0049 11.6893C27.5464 11.6893 26.1207 12.1178 24.9081 12.9205C23.6954 13.7233 22.7502 14.8643 22.1921 16.1993C21.634 17.5343 21.4879 19.0032 21.7725 20.4204C22.057 21.8376 22.7593 23.1394 23.7906 24.1611C24.8219 25.1829 26.1358 25.8787 27.5663 26.1606C28.9967 26.4425 30.4794 26.2978 31.8269 25.7448C33.1743 25.1919 34.326 24.2555 35.1363 23.054C35.9466 21.8526 36.379 20.4401 36.379 18.9951C36.379 17.0575 35.6021 15.1992 34.2192 13.8291C32.8363 12.459 30.9606 11.6893 29.0049 11.6893ZM29.0049 23.3786C28.1298 23.3786 27.2744 23.1215 26.5468 22.6399C25.8192 22.1582 25.2521 21.4736 24.9172 20.6726C24.5823 19.8716 24.4947 18.9903 24.6654 18.1399C24.8362 17.2896 25.2576 16.5086 25.8763 15.8955C26.4951 15.2825 27.2835 14.865 28.1417 14.6958C29 14.5267 29.8896 14.6135 30.6981 14.9453C31.5066 15.2771 32.1976 15.8389 32.6837 16.5598C33.1699 17.2806 33.4294 18.1281 33.4294 18.9951C33.4294 20.1577 32.9632 21.2726 32.1335 22.0947C31.3037 22.9168 30.1784 23.3786 29.0049 23.3786ZM10.8154 11.2022V22.8916C10.8154 23.2791 10.66 23.6507 10.3834 23.9248C10.1068 24.1988 9.73171 24.3527 9.34056 24.3527C8.94942 24.3527 8.57429 24.1988 8.2977 23.9248C8.02112 23.6507 7.86574 23.2791 7.86574 22.8916V11.2022C7.86574 10.8147 8.02112 10.4431 8.2977 10.169C8.57429 9.89502 8.94942 9.74107 9.34056 9.74107C9.73171 9.74107 10.1068 9.89502 10.3834 10.169C10.66 10.4431 10.8154 10.8147 10.8154 11.2022ZM47.1944 26.788V15.0987C47.1944 14.7112 47.3498 14.3395 47.6264 14.0655C47.903 13.7915 48.2781 13.6375 48.6693 13.6375C49.0604 13.6375 49.4355 13.7915 49.7121 14.0655C49.9887 14.3395 50.1441 14.7112 50.1441 15.0987V26.788C50.1441 27.1755 49.9887 27.5472 49.7121 27.8212C49.4355 28.0952 49.0604 28.2492 48.6693 28.2492C48.2781 28.2492 47.903 28.0952 47.6264 27.8212C47.3498 27.5472 47.1944 27.1755 47.1944 26.788Z" fill="#FB6A68"/>
</svg>
